<svg xmlns="http://www.w3.org/2000/svg" viewBox="0 0 230 68.6" xml:space="preserve"><path d="M53.7 31.6c-1-3.1-1.4-6.5-1.1-9.8s1.4-6.5 3.1-9.3c6-10.2 19-14.7 31.1-11.5l3.5 5.3-5.7 4.5C73 7.7 61 12.1 56 20.6c-1.8 3.3-2.7 7.2-2.3 11" style="fill-rule:evenodd;clip-rule:evenodd;fill:#f35c22"/><path d="M0 22.1c0-1.5.6-2.9 1.7-4 1-1.1 2.5-1.7 4-1.7s2.9.6 4 1.7 1.7 2.5 1.7 4-.6 2.9-1.7 4-2.5 1.6-4 1.6-2.9-.6-4-1.7C.6 25 0 23.6 0 22.1M1.1 32h9.2v35.6H1.1zm50.6 13.8v21.9h-9.2V46.9c0-4.8-2.9-7.3-7.1-7.3-4.5 0-7.8 2.6-7.8 8.8v19.2h-9.2V32h9.2v4c2.1-3.2 5.8-5 10.6-5 7.6 0 13.5 5.3 13.5 14.8m5.5 10.5 8.4-4.9C67.4 56 70.9 59 77.1 59c5.9 0 8-2.5 8-5.3 0-3.7-3.4-5.1-10.8-7.3-7.6-2.2-15-5.4-15-14.9s7.8-14.8 16.4-14.8c8.2 0 14.5 4.2 17.8 11.2l-8.3 4.8c-1.8-3.8-4.5-6.4-9.6-6.4-4.1 0-6.5 2.1-6.5 5 0 3.1 1.9 4.7 9.5 7 7.9 2.5 16.3 5.1 16.3 15.3 0 9.3-7.5 15-18.1 15-10.2 0-16.9-4.9-19.6-12.3M137.9 32v35.6h-9.2v-4.2c-2.6 3.2-6.4 5.2-11.6 5.2-9.5 0-17.3-8.2-17.3-18.8S107.6 31 117.1 31c5.2 0 9 2 11.6 5.2V32zm-9.2 17.8c0-6-4.2-10-9.9-10s-9.8 4.1-9.8 10 4.2 10 9.8 10c5.6.1 9.9-4 9.9-10M146 15.6h9.2v52H146zm35.2 44.7c3.6 0 6.4-1.5 8-3.6l7.4 4.3c-3.4 4.8-8.7 7.6-15.5 7.6-12 0-19.5-8.2-19.5-18.8S169.2 31 180.4 31c10.6 0 18 8.3 18 18.8 0 1.3-.1 2.5-.4 3.8h-26.9c1.3 4.7 5.2 6.7 10.1 6.7m8-13.9c-1.1-5.1-5-7.2-8.8-7.2-4.9 0-8.3 2.6-9.3 7.2zM230 57.2c0 7.7-6.7 11.4-14.3 11.4-7.1 0-12.4-3-15-8.5l8-4.5c1 2.9 3.4 4.6 7 4.6 2.9 0 4.9-1 4.9-3.1 0-5.2-18.4-2.3-18.4-14.9 0-7.3 6.2-11.3 13.5-11.3 5.8 0 10.8 2.6 13.5 7.5l-7.8 4.3c-.5-1.1-1.3-2-2.3-2.7-1-.6-2.2-1-3.4-.9-2.3 0-4.1 1-4.1 2.9 0 5.4 18.4 2.1 18.4 15.2" style="fill:#2b2d33"/></svg>
